<svg width="18" height="18" viewBox="0 0 24 24" fill="none" xmlns="http://www.w3.org/2000/svg">
  <rect width="24" height="24" rx="4" fill="#1F8DED"/>
  <path d="M19.5 12c0 .276-.228.5-.509.5h-.982c-.281 0-.509-.224-.509-.5V7c0-.276.228-.5.509-.5h.982c.281 0 .509.224.509.5v5zM16.5 13c0 .276-.228.5-.509.5h-.982c-.281 0-.509-.224-.509-.5V5c0-.276.228-.5.509-.5h.982c.281 0 .509.224.509.5v8zM13.5 13c0 .276-.228.5-.509.5h-.982c-.281 0-.509-.224-.509-.5V5c0-.276.228-.5.509-.5h.982c.281 0 .509.224.509.5v8zM10.5 13c0 .276-.228.5-.509.5h-.982c-.281 0-.509-.224-.509-.5V5c0-.276.228-.5.509-.5h.982c.281 0 .509.224.509.5v8zM7.5 12c0 .276-.228.5-.509.5h-.982c-.281 0-.509-.224-.509-.5V7c0-.276.228-.5.509-.5h.982c.281 0 .509.224.509.5v5zM18.168 15.457c-.192-.132-.453-.097-.604.082-1.44 1.717-3.517 2.461-5.564 2.461s-4.124-.744-5.564-2.461c-.151-.179-.412-.214-.604-.082-.2.138-.244.403-.098.598C7.564 18.39 9.84 19.5 12 19.5s4.436-1.11 6.266-3.445c.146-.195.102-.46-.098-.598z" fill="white"/>
</svg>
