<svg width="18" height="18" viewBox="0 0 24 24" fill="none" xmlns="http://www.w3.org/2000/svg">
  <path d="M11.53 2C11.53 4.4 13.5 6.35 15.88 6.35H17.66V8.05C17.66 10.45 19.61 12.4 22 12.4V2.84C22 2.38 21.62 2 21.16 2H11.53Z" fill="#2684FF"/>
  <path d="M6.77 6.8C6.77 9.2 8.72 11.15 11.1 11.15H12.88V12.86C12.88 15.26 14.83 17.21 17.21 17.21V7.64C17.21 7.18 16.83 6.8 16.37 6.8H6.77Z" fill="url(#paint0_linear)"/>
  <path d="M2 11.6C2 14 3.95 15.95 6.33 15.95H8.11V17.65C8.11 20.05 10.06 22 12.44 22V12.44C12.44 11.98 12.06 11.6 11.6 11.6H2Z" fill="url(#paint1_linear)"/>
  <defs>
    <linearGradient id="paint0_linear" x1="16.8" y1="6.82" x2="12.05" y2="11.52" gradientUnits="userSpaceOnUse">
      <stop offset="0.18" stop-color="#0052CC"/>
      <stop offset="1" stop-color="#2684FF"/>
    </linearGradient>
    <linearGradient id="paint1_linear" x1="12.12" y1="11.62" x2="7.3" y2="16.37" gradientUnits="userSpaceOnUse">
      <stop offset="0.18" stop-color="#0052CC"/>
      <stop offset="1" stop-color="#2684FF"/>
    </linearGradient>
  </defs>
</svg>
